<?xml version="1.0" encoding="UTF-8" standalone="no"?><!DOCTYPE svg PUBLIC "-//W3C//DTD SVG 1.1//EN" "http://www.w3.org/Graphics/SVG/1.1/DTD/svg11.dtd"><svg viewBox="0 0 30 30" version="1.1" xmlns="http://www.w3.org/2000/svg" xmlns:xlink="http://www.w3.org/1999/xlink" xml:space="preserve" xmlns:serif="http://www.serif.com/" style="fill-rule:evenodd;clip-rule:evenodd;stroke-linejoin:round;stroke-miterlimit:2;"><ellipse cx="14.985" cy="15.01" rx="13.499" ry="13.499" style="fill:#f5f8fa;"/><path d="M20.967,15.811c-0.276,-0.732 -1.047,-1.047 -1.797,-0.868c-0.075,0.018 -0.15,0.039 -0.224,0.067c-0.208,0.316 -0.003,0.008 -0.003,0.008l-6.571,2.481c0.002,0.006 0.004,0.01 0.004,0.009c-1.621,0.612 -3.415,0.139 -4.536,-1.036c-0.361,-0.379 -0.654,-0.831 -0.849,-1.347c-0.19,-0.505 -0.271,-1.025 -0.258,-1.535c0.041,-1.626 1.058,-3.148 2.688,-3.763l0.001,0l11.758,-4.44c-2.944,-1.891 -6.713,-2.414 -10.237,-1.083c-5.913,2.232 -8.897,8.836 -6.665,14.749c0.562,1.488 1.4,2.789 2.434,3.869l13.455,-5.079c0.753,-0.341 1.093,-1.257 0.8,-2.032" style="fill:#0c84cd;fill-rule:nonzero;"/><path d="M9.431,14.307c0.304,0.805 1.207,1.108 2.021,0.801l6.577,-2.483l0.009,-0.004l0.002,0c1.622,-0.608 3.413,-0.144 4.531,1.038c0.355,0.376 0.643,0.824 0.836,1.334c0.193,0.511 0.274,1.037 0.258,1.552c-0.047,1.619 -1.063,3.133 -2.688,3.746c0,0.002 -0.002,-0.004 -0.005,-0.014l-11.937,4.507c2.906,1.767 6.564,2.228 9.993,0.934c5.913,-2.233 8.897,-8.836 6.665,-14.749c-0.53,-1.404 -1.308,-2.639 -2.263,-3.682l-13.113,4.95c-0.814,0.308 -1.19,1.265 -0.886,2.07" style="fill:#409ce7;fill-rule:nonzero;"/><path d="M5.647,23.145c-2.01,-2.306 -3.18,-5.352 -3.045,-8.643c0.136,-3.308 1.552,-6.365 3.987,-8.608c2.307,-2.124 5.266,-3.277 8.384,-3.277c0.173,0 0.347,0.003 0.521,0.01c2.51,0.103 4.874,0.945 6.849,2.407l1.216,-0.451c-2.257,-1.864 -5.044,-2.939 -8.019,-3.061c-3.604,-0.146 -7.048,1.116 -9.701,3.559c-2.652,2.443 -4.194,5.772 -4.342,9.375c-0.141,3.434 1.021,6.623 3.043,9.093l1.107,-0.404Z" style="fill:#2a3137;fill-rule:nonzero;"/><path d="M25.531,6.587l-1.096,0.407c2.023,2.38 3.063,5.387 2.934,8.525l0,0.001c-0.136,3.307 -1.552,6.364 -3.987,8.607c-2.435,2.242 -5.598,3.403 -8.905,3.267c-2.505,-0.103 -4.807,-0.949 -6.705,-2.313l-1.236,0.45c2.172,1.749 4.901,2.845 7.895,2.968c0.19,0.008 0.379,0.012 0.568,0.012c3.395,0 6.62,-1.256 9.132,-3.571c2.653,-2.443 4.195,-5.772 4.343,-9.375c0.135,-3.285 -0.907,-6.437 -2.943,-8.978" style="fill:#2a3137;fill-rule:nonzero;"/></svg>